<?xml version="1.0" encoding="UTF-8" standalone="no"?>
<!-- Created with Inkscape (http://www.inkscape.org/) -->

<svg
   width="110.94218mm"
   height="103.43145mm"
   viewBox="0 0 110.94218 103.43145"
   version="1.1"
   id="svg1"
   xml:space="preserve"
   xmlns="http://www.w3.org/2000/svg"
   xmlns:svg="http://www.w3.org/2000/svg"><defs
     id="defs1" /><g
     id="layer1"
     transform="translate(-37.313519,-47.98705)"
     style="fill:#ffffff"><path
       style="fill:#ffffff"
       d="m 91.64133,151.27471 c -15.59339,-1.6398 -29.50436,-10.0661 -38.17274,-23.1224 -2.95331,-4.44827 -5.56697,-10.32086 -6.90375,-15.51196 -0.36735,-1.42654 -0.72197,-2.64775 -0.78804,-2.71382 -0.0661,-0.0661 -0.57242,0.46616 -1.12525,1.18272 -1.50793,1.95457 -3.22582,2.53397 -5.14075,1.73385 -1.57835,-0.65947 -2.54688,-2.71016 -2.07923,-4.40241 0.27387,-0.99108 8.25659,-11.302367 9.2579,-11.958447 0.86554,-0.56713 2.54862,-0.69002 3.4298,-0.25043 0.90809,0.45302 10.17523,7.742147 11.15063,8.770607 0.5772,0.60859 0.72212,0.9978 0.80666,2.16652 0.12622,1.74502 -0.4736,2.89596 -1.88432,3.61566 -1.47193,0.75093 -2.57883,0.62381 -4.24264,-0.48725 -0.78993,-0.52749 -1.57027,-1.12059 -1.73411,-1.318 -0.49701,-0.59886 -0.76682,-0.41093 -0.60286,0.41989 0.73209,3.70963 3.21936,9.74007 5.59056,13.55445 3.38514,5.44541 8.46367,10.56968 13.9405,14.06607 17.29764,11.04273 40.24315,8.39483 54.83015,-6.3274 17.01786,-17.1756 16.92664,-44.946216 -0.20392,-62.076772 C 119.93937,60.785034 110.02015,56.410105 98.51118,55.710845 95.44,55.524246 95.18394,55.470376 94.35202,54.835839 c -2.60329,-1.985625 -1.67426,-6.14755 1.50787,-6.75505 2.00646,-0.383055 9.28955,0.459772 13.69683,1.58505 18.19259,4.64498 32.66826,19.253009 37.2674,37.608165 1.11049,4.431944 1.43158,7.231119 1.43158,12.479849 0,3.574237 -0.11666,5.630677 -0.42823,7.548567 -1.8517,11.39816 -6.74668,21.0801 -14.65692,28.99033 -7.88353,7.88353 -17.71892,12.86534 -28.87052,14.62345 -2.94683,0.46458 -9.80343,0.65877 -12.6587,0.35851 z M 77.51406,128.11226 c -3.1531,-1.55414 -2.7741,-6.19343 0.57923,-7.09031 l 1.04487,-0.27946 V 119.396 c 0,-2.44088 0.51287,-6.55754 0.99735,-8.00551 0.97479,-2.91331 4.18518,-6.85861 8.20152,-10.079 0.98625,-0.7908 1.79319,-1.491737 1.79319,-1.557637 0,-0.0659 -0.80694,-0.76683 -1.79319,-1.55764 -4.01634,-3.22038 -7.22673,-7.165683 -8.20152,-10.078989 -0.48636,-1.45359 -0.99735,-5.566954 -0.99735,-8.02854 v -1.369532 l -0.8521,-0.159854 c -1.13217,-0.212397 -2.66318,-1.743407 -2.87558,-2.87558 -0.3466,-1.84758 0.58219,-3.678827 2.21106,-4.359414 1.17052,-0.489076 36.38649,-0.482364 37.55808,0.0072 1.56367,0.653342 2.5294,2.564024 2.19552,4.34378 -0.21029,1.120929 -1.74106,2.670919 -2.84172,2.877405 l -0.81665,0.153203 -0.15897,2.973725 c -0.40949,7.659774 -1.85574,10.253707 -9.37759,16.819258 l -1.43782,1.25502 1.43782,1.255035 c 7.52185,6.56555 8.9681,9.15948 9.37759,16.81926 l 0.15897,2.97372 0.81665,0.1532 c 0.49088,0.0921 1.18834,0.52491 1.74846,1.08502 1.44044,1.44045 1.58294,3.32978 0.37099,4.91873 -1.23821,1.62339 -0.30173,1.55205 -20.29707,1.54601 -16.1323,-0.005 -18.14006,-0.0467 -18.84174,-0.39256 z m 28.46161,-8.76809 c -0.004,-2.94946 -0.42167,-5.43417 -1.11326,-6.61603 -1.06755,-1.82436 -7.59055,-7.94191 -8.46827,-7.94191 -0.41328,0 -5.57966,4.39898 -6.84062,5.82453 -1.79086,2.02463 -2.25543,2.99195 -2.51305,5.23266 -0.12666,1.10166 -0.23111,2.677 -0.23211,3.50075 l -0.002,1.49773 h 9.58548 9.58547 z M 98.50768,93.229113 c 2.60724,-2.116551 5.59164,-5.145478 6.35473,-6.449545 0.69159,-1.181858 1.10968,-3.66657 1.11326,-6.616025 l 0.002,-1.49773 H 96.3922 86.80672 l 0.002,1.49773 c 0.001,0.823752 0.10545,2.399088 0.23211,3.500746 0.27044,2.352241 0.75228,3.299054 2.79643,5.495004 1.65801,1.78113 6.05809,5.52905 6.51405,5.54856 0.17511,0.007 1.14564,-0.65794 2.15673,-1.47874 z M 49.07896,90.999115 c -2.83707,-0.778478 -4.1618,-3.072393 -3.15955,-5.471113 0.40395,-0.96679 1.34731,-1.738859 2.57353,-2.106243 0.75804,-0.227114 1.21028,-0.200148 2.54365,0.151668 2.20332,0.581358 3.04762,1.139183 3.66994,2.424711 0.64197,1.326148 0.50314,2.686316 -0.3943,3.86292 -1.13964,1.494146 -2.69939,1.833339 -5.23327,1.138057 z M 53.48984,79.211727 C 51.352,78.112014 50.5292,77.033378 50.5292,75.330516 c 0,-1.523553 0.67346,-2.636684 2.01475,-3.330099 1.43753,-0.74317 2.64944,-0.599956 4.59318,0.542784 2.09421,1.231207 2.47062,1.798919 2.47062,3.726243 0,1.84392 -0.44394,2.613697 -1.93284,3.351434 -1.38505,0.686278 -2.2129,0.605344 -4.18507,-0.409151 z m 8.03501,-9.385377 c -1.0341,-0.647838 -2.68543,-2.430072 -2.98154,-3.21789 -0.4173,-1.110245 -0.30178,-2.418063 0.29133,-3.298175 1.12511,-1.669562 2.90744,-2.299885 4.65161,-1.645055 0.80334,0.301603 2.84874,2.236572 3.32941,3.149653 0.49834,0.946642 0.43017,2.797705 -0.13732,3.728462 -1.01265,1.660871 -3.54428,2.291141 -5.15349,1.283005 z m 9.78292,-7.349363 C 70.07583,61.847635 68.3545,58.923331 68.3545,57.4598 c 0,-3.42071 4.20423,-5.183397 6.50037,-2.725376 0.90287,0.966527 2.12656,3.477479 2.12656,4.3636 0,0.972637 -0.81644,2.565272 -1.61015,3.140918 -0.8707,0.631493 -3.04413,0.758814 -4.06351,0.238045 z m 11.4898,-4.637706 c -1.25249,-0.584882 -1.84288,-1.522425 -2.37196,-3.766673 -0.38566,-1.63588 -0.38521,-1.789914 0.008,-2.820172 1.02926,-2.695083 4.14089,-3.391584 6.1548,-1.377677 0.97727,0.977271 1.38247,2.06537 1.57458,4.228275 0.11018,1.24052 0.0505,1.54989 -0.43477,2.254516 -1.24685,1.810387 -3.06021,2.355299 -4.9309,1.481731 z"
       id="path1" /></g></svg>
